<mxfile host="Electron" agent="Mozilla/5.0 (Windows NT 10.0; Win64; x64) AppleWebKit/537.36 (KHTML, like Gecko) draw.io/27.0.9 Chrome/134.0.6998.205 Electron/35.4.0 Safari/537.36" version="27.0.9">
  <diagram name="Página-1" id="GBIHrVOZMRVrNSk3RS8H">
    <mxGraphModel dx="1650" dy="575" grid="1" gridSize="10" guides="1" tooltips="1" connect="1" arrows="1" fold="1" page="1" pageScale="1" pageWidth="827" pageHeight="1169" math="0" shadow="0">
      <root>
        <mxCell id="0" />
        <mxCell id="1" parent="0" />
        <mxCell id="dI6TXHUe1FEHqoitCaC2-2" value="&lt;div style=&quot;line-height: 100%;&quot;&gt;&lt;div&gt;&lt;font style=&quot;font-size: 10px;&quot;&gt;Ejercicio 37: Carta de un restaurante&lt;/font&gt;&lt;/div&gt;&lt;div&gt;&lt;br&gt;&lt;/div&gt;&lt;div&gt;&lt;font style=&quot;font-size: 10px; color: rgb(102, 255, 102);&quot;&gt;Para cada plato, se desea obtener su código identificativo, nombre, descripción, nivel de dificultad (de&lt;/font&gt;&lt;/div&gt;&lt;div&gt;&lt;font style=&quot;font-size: 10px; color: rgb(102, 255, 102);&quot;&gt;elaboración), una foto y el precio final para el cliente. Cada plato puede pertenecer a varias categorías, teniendo&lt;/font&gt;&lt;/div&gt;&lt;div&gt;&lt;font style=&quot;font-size: 10px; color: rgb(102, 255, 102);&quot;&gt;cada categoría varios platos.&lt;/font&gt;&lt;/div&gt;&lt;div&gt;&lt;font style=&quot;font-size: 10px; color: rgb(0, 204, 0);&quot;&gt;Las categorías se caracterizan por su nombre único y una breve descripción.&lt;/font&gt;&lt;/div&gt;&lt;div&gt;&lt;font style=&quot;font-size: 10px;&quot;&gt;Cada plato necesita para su realización una lista de ingredientes, de los cuales se deberá saber su nombre&lt;/font&gt;&lt;/div&gt;&lt;div&gt;&lt;font style=&quot;font-size: 10px;&quot;&gt;único, una descripción y la cantidad actual en el almacén. Un plato podrá necesitar varios ingredientes,&lt;/font&gt;&lt;/div&gt;&lt;div&gt;&lt;font style=&quot;font-size: 10px;&quot;&gt;mientras que un ingrediente estará en varios platos. Es de vital importancia conocer la cantidad requerida de&lt;/font&gt;&lt;/div&gt;&lt;div&gt;&lt;font style=&quot;font-size: 10px;&quot;&gt;cada ingrediente en cada plato, así como las unidades de medida (gramos, litros, etc.).&lt;/font&gt;&lt;/div&gt;&lt;/div&gt;" style="text;html=1;align=left;verticalAlign=middle;whiteSpace=wrap;rounded=0;" vertex="1" parent="1">
          <mxGeometry x="20" y="60" width="560" height="150" as="geometry" />
        </mxCell>
        <mxCell id="dI6TXHUe1FEHqoitCaC2-3" value="plato" style="whiteSpace=wrap;html=1;align=center;fillColor=#f0a30a;strokeColor=#BD7000;fontColor=#000000;" vertex="1" parent="1">
          <mxGeometry x="70" y="350" width="60" height="40" as="geometry" />
        </mxCell>
        <mxCell id="dI6TXHUe1FEHqoitCaC2-4" value="categoria" style="whiteSpace=wrap;html=1;align=center;fillColor=#f0a30a;strokeColor=#BD7000;fontColor=#000000;" vertex="1" parent="1">
          <mxGeometry x="300" y="350" width="70" height="40" as="geometry" />
        </mxCell>
        <mxCell id="dI6TXHUe1FEHqoitCaC2-5" value="ingredientes" style="whiteSpace=wrap;html=1;align=center;fillColor=#f0a30a;strokeColor=#BD7000;fontColor=#000000;" vertex="1" parent="1">
          <mxGeometry x="55" y="500" width="90" height="40" as="geometry" />
        </mxCell>
        <mxCell id="dI6TXHUe1FEHqoitCaC2-6" value="pertenece" style="shape=rhombus;perimeter=rhombusPerimeter;whiteSpace=wrap;html=1;align=center;fillColor=#76608a;fontColor=#ffffff;strokeColor=#432D57;" vertex="1" parent="1">
          <mxGeometry x="170" y="350" width="90" height="40" as="geometry" />
        </mxCell>
        <mxCell id="dI6TXHUe1FEHqoitCaC2-7" value="" style="endArrow=none;html=1;rounded=0;exitX=0;exitY=0.5;exitDx=0;exitDy=0;entryX=1;entryY=0.5;entryDx=0;entryDy=0;" edge="1" source="dI6TXHUe1FEHqoitCaC2-6" parent="1" target="dI6TXHUe1FEHqoitCaC2-3">
          <mxGeometry relative="1" as="geometry">
            <mxPoint x="197" y="340" as="sourcePoint" />
            <mxPoint x="150" y="370" as="targetPoint" />
          </mxGeometry>
        </mxCell>
        <mxCell id="dI6TXHUe1FEHqoitCaC2-8" value="(1,N)" style="resizable=0;html=1;whiteSpace=wrap;align=right;verticalAlign=bottom;" connectable="0" vertex="1" parent="dI6TXHUe1FEHqoitCaC2-7">
          <mxGeometry x="1" relative="1" as="geometry">
            <mxPoint x="34" as="offset" />
          </mxGeometry>
        </mxCell>
        <mxCell id="dI6TXHUe1FEHqoitCaC2-9" value="" style="endArrow=none;html=1;rounded=0;exitX=1;exitY=0.5;exitDx=0;exitDy=0;entryX=0;entryY=0.5;entryDx=0;entryDy=0;" edge="1" source="dI6TXHUe1FEHqoitCaC2-6" parent="1" target="dI6TXHUe1FEHqoitCaC2-4">
          <mxGeometry relative="1" as="geometry">
            <mxPoint x="197" y="340" as="sourcePoint" />
            <mxPoint x="370" y="370" as="targetPoint" />
          </mxGeometry>
        </mxCell>
        <mxCell id="dI6TXHUe1FEHqoitCaC2-10" value="(1,M)" style="resizable=0;html=1;whiteSpace=wrap;align=right;verticalAlign=bottom;" connectable="0" vertex="1" parent="dI6TXHUe1FEHqoitCaC2-9">
          <mxGeometry x="1" relative="1" as="geometry">
            <mxPoint as="offset" />
          </mxGeometry>
        </mxCell>
        <mxCell id="dI6TXHUe1FEHqoitCaC2-11" value="" style="endArrow=none;html=1;rounded=0;exitX=0.5;exitY=0;exitDx=0;exitDy=0;" edge="1" target="dI6TXHUe1FEHqoitCaC2-12" parent="1" source="dI6TXHUe1FEHqoitCaC2-3">
          <mxGeometry relative="1" as="geometry">
            <mxPoint x="30" y="285" as="sourcePoint" />
            <mxPoint x="90" y="285" as="targetPoint" />
          </mxGeometry>
        </mxCell>
        <mxCell id="dI6TXHUe1FEHqoitCaC2-12" value="&lt;u&gt;codigo&lt;/u&gt;" style="ellipse;whiteSpace=wrap;html=1;align=center;" vertex="1" parent="1">
          <mxGeometry x="75" y="270" width="50" height="30" as="geometry" />
        </mxCell>
        <mxCell id="dI6TXHUe1FEHqoitCaC2-13" value="" style="endArrow=none;html=1;rounded=0;exitX=0.75;exitY=0;exitDx=0;exitDy=0;" edge="1" target="dI6TXHUe1FEHqoitCaC2-14" parent="1" source="dI6TXHUe1FEHqoitCaC2-3">
          <mxGeometry relative="1" as="geometry">
            <mxPoint x="110" y="285" as="sourcePoint" />
            <mxPoint x="170" y="285" as="targetPoint" />
          </mxGeometry>
        </mxCell>
        <mxCell id="dI6TXHUe1FEHqoitCaC2-14" value="nombre" style="ellipse;whiteSpace=wrap;html=1;align=center;" vertex="1" parent="1">
          <mxGeometry x="120" y="290" width="50" height="30" as="geometry" />
        </mxCell>
        <mxCell id="dI6TXHUe1FEHqoitCaC2-15" value="" style="endArrow=none;html=1;rounded=0;exitX=0.25;exitY=0;exitDx=0;exitDy=0;" edge="1" target="dI6TXHUe1FEHqoitCaC2-16" parent="1" source="dI6TXHUe1FEHqoitCaC2-3">
          <mxGeometry relative="1" as="geometry">
            <mxPoint x="-10" y="305" as="sourcePoint" />
            <mxPoint x="50" y="305" as="targetPoint" />
          </mxGeometry>
        </mxCell>
        <mxCell id="dI6TXHUe1FEHqoitCaC2-16" value="descrip" style="ellipse;whiteSpace=wrap;html=1;align=center;" vertex="1" parent="1">
          <mxGeometry x="25" y="290" width="50" height="30" as="geometry" />
        </mxCell>
        <mxCell id="dI6TXHUe1FEHqoitCaC2-17" value="" style="endArrow=none;html=1;rounded=0;exitX=0;exitY=0.25;exitDx=0;exitDy=0;" edge="1" target="dI6TXHUe1FEHqoitCaC2-18" parent="1" source="dI6TXHUe1FEHqoitCaC2-3">
          <mxGeometry relative="1" as="geometry">
            <mxPoint x="64.99999999999989" y="350" as="sourcePoint" />
            <mxPoint x="25" y="335" as="targetPoint" />
          </mxGeometry>
        </mxCell>
        <mxCell id="dI6TXHUe1FEHqoitCaC2-18" value="dificultad" style="ellipse;whiteSpace=wrap;html=1;align=center;" vertex="1" parent="1">
          <mxGeometry x="-10" y="320" width="60" height="30" as="geometry" />
        </mxCell>
        <mxCell id="dI6TXHUe1FEHqoitCaC2-19" value="" style="endArrow=none;html=1;rounded=0;exitX=0;exitY=0.5;exitDx=0;exitDy=0;" edge="1" target="dI6TXHUe1FEHqoitCaC2-20" parent="1" source="dI6TXHUe1FEHqoitCaC2-3">
          <mxGeometry relative="1" as="geometry">
            <mxPoint x="-40" y="375" as="sourcePoint" />
            <mxPoint x="20" y="375" as="targetPoint" />
          </mxGeometry>
        </mxCell>
        <mxCell id="dI6TXHUe1FEHqoitCaC2-20" value="foto" style="ellipse;whiteSpace=wrap;html=1;align=center;" vertex="1" parent="1">
          <mxGeometry x="-10" y="360" width="50" height="20" as="geometry" />
        </mxCell>
        <mxCell id="dI6TXHUe1FEHqoitCaC2-21" value="" style="endArrow=none;html=1;rounded=0;exitX=0;exitY=0.75;exitDx=0;exitDy=0;" edge="1" target="dI6TXHUe1FEHqoitCaC2-22" parent="1" source="dI6TXHUe1FEHqoitCaC2-3">
          <mxGeometry relative="1" as="geometry">
            <mxPoint x="-35" y="405" as="sourcePoint" />
            <mxPoint x="25" y="405" as="targetPoint" />
          </mxGeometry>
        </mxCell>
        <mxCell id="dI6TXHUe1FEHqoitCaC2-22" value="precioFinal" style="ellipse;whiteSpace=wrap;html=1;align=center;" vertex="1" parent="1">
          <mxGeometry x="-20" y="390" width="70" height="30" as="geometry" />
        </mxCell>
        <mxCell id="dI6TXHUe1FEHqoitCaC2-23" value="" style="endArrow=none;html=1;rounded=0;exitX=0.5;exitY=0;exitDx=0;exitDy=0;" edge="1" target="dI6TXHUe1FEHqoitCaC2-24" parent="1" source="dI6TXHUe1FEHqoitCaC2-4">
          <mxGeometry relative="1" as="geometry">
            <mxPoint x="270" y="295" as="sourcePoint" />
            <mxPoint x="330" y="295" as="targetPoint" />
          </mxGeometry>
        </mxCell>
        <mxCell id="dI6TXHUe1FEHqoitCaC2-24" value="&lt;u&gt;nombre&lt;/u&gt;" style="ellipse;whiteSpace=wrap;html=1;align=center;" vertex="1" parent="1">
          <mxGeometry x="310" y="280" width="50" height="30" as="geometry" />
        </mxCell>
        <mxCell id="dI6TXHUe1FEHqoitCaC2-25" value="" style="endArrow=none;html=1;rounded=0;exitX=0.75;exitY=0;exitDx=0;exitDy=0;" edge="1" target="dI6TXHUe1FEHqoitCaC2-26" parent="1" source="dI6TXHUe1FEHqoitCaC2-4">
          <mxGeometry relative="1" as="geometry">
            <mxPoint x="360" y="345" as="sourcePoint" />
            <mxPoint x="420" y="345" as="targetPoint" />
          </mxGeometry>
        </mxCell>
        <mxCell id="dI6TXHUe1FEHqoitCaC2-26" value="descrip" style="ellipse;whiteSpace=wrap;html=1;align=center;" vertex="1" parent="1">
          <mxGeometry x="364" y="290" width="50" height="30" as="geometry" />
        </mxCell>
        <mxCell id="dI6TXHUe1FEHqoitCaC2-27" value="tiene" style="shape=rhombus;perimeter=rhombusPerimeter;whiteSpace=wrap;html=1;align=center;fillColor=#76608a;fontColor=#ffffff;strokeColor=#432D57;" vertex="1" parent="1">
          <mxGeometry x="67.5" y="430" width="65" height="40" as="geometry" />
        </mxCell>
        <mxCell id="dI6TXHUe1FEHqoitCaC2-28" value="" style="endArrow=none;html=1;rounded=0;exitX=0.5;exitY=0;exitDx=0;exitDy=0;entryX=0.5;entryY=1;entryDx=0;entryDy=0;" edge="1" source="dI6TXHUe1FEHqoitCaC2-27" parent="1" target="dI6TXHUe1FEHqoitCaC2-3">
          <mxGeometry relative="1" as="geometry">
            <mxPoint x="27" y="420" as="sourcePoint" />
            <mxPoint x="-20" y="450" as="targetPoint" />
          </mxGeometry>
        </mxCell>
        <mxCell id="dI6TXHUe1FEHqoitCaC2-29" value="(1,N)" style="resizable=0;html=1;whiteSpace=wrap;align=right;verticalAlign=bottom;" connectable="0" vertex="1" parent="dI6TXHUe1FEHqoitCaC2-28">
          <mxGeometry x="1" relative="1" as="geometry">
            <mxPoint x="30" y="20" as="offset" />
          </mxGeometry>
        </mxCell>
        <mxCell id="dI6TXHUe1FEHqoitCaC2-30" value="" style="endArrow=none;html=1;rounded=0;exitX=0.5;exitY=1;exitDx=0;exitDy=0;entryX=0.5;entryY=0;entryDx=0;entryDy=0;" edge="1" source="dI6TXHUe1FEHqoitCaC2-27" parent="1" target="dI6TXHUe1FEHqoitCaC2-5">
          <mxGeometry relative="1" as="geometry">
            <mxPoint x="27" y="420" as="sourcePoint" />
            <mxPoint x="200" y="450" as="targetPoint" />
          </mxGeometry>
        </mxCell>
        <mxCell id="dI6TXHUe1FEHqoitCaC2-31" value="(1,M)" style="resizable=0;html=1;whiteSpace=wrap;align=right;verticalAlign=bottom;" connectable="0" vertex="1" parent="dI6TXHUe1FEHqoitCaC2-30">
          <mxGeometry x="1" relative="1" as="geometry">
            <mxPoint x="30" as="offset" />
          </mxGeometry>
        </mxCell>
        <mxCell id="dI6TXHUe1FEHqoitCaC2-33" value="" style="endArrow=none;html=1;rounded=0;exitX=0.5;exitY=1;exitDx=0;exitDy=0;" edge="1" target="dI6TXHUe1FEHqoitCaC2-34" parent="1" source="dI6TXHUe1FEHqoitCaC2-5">
          <mxGeometry relative="1" as="geometry">
            <mxPoint x="35" y="595" as="sourcePoint" />
            <mxPoint x="95" y="595" as="targetPoint" />
          </mxGeometry>
        </mxCell>
        <mxCell id="dI6TXHUe1FEHqoitCaC2-34" value="&lt;u&gt;nombre&lt;/u&gt;" style="ellipse;whiteSpace=wrap;html=1;align=center;" vertex="1" parent="1">
          <mxGeometry x="75" y="580" width="50" height="30" as="geometry" />
        </mxCell>
        <mxCell id="dI6TXHUe1FEHqoitCaC2-35" value="" style="endArrow=none;html=1;rounded=0;exitX=0.75;exitY=1;exitDx=0;exitDy=0;" edge="1" target="dI6TXHUe1FEHqoitCaC2-36" parent="1" source="dI6TXHUe1FEHqoitCaC2-5">
          <mxGeometry relative="1" as="geometry">
            <mxPoint x="173" y="565" as="sourcePoint" />
            <mxPoint x="233" y="565" as="targetPoint" />
          </mxGeometry>
        </mxCell>
        <mxCell id="dI6TXHUe1FEHqoitCaC2-36" value="descrip" style="ellipse;whiteSpace=wrap;html=1;align=center;" vertex="1" parent="1">
          <mxGeometry x="132.5" y="570" width="50" height="30" as="geometry" />
        </mxCell>
        <mxCell id="dI6TXHUe1FEHqoitCaC2-37" value="" style="endArrow=none;html=1;rounded=0;exitX=0.25;exitY=1;exitDx=0;exitDy=0;" edge="1" target="dI6TXHUe1FEHqoitCaC2-38" parent="1" source="dI6TXHUe1FEHqoitCaC2-5">
          <mxGeometry relative="1" as="geometry">
            <mxPoint x="-15" y="570" as="sourcePoint" />
            <mxPoint x="45" y="570" as="targetPoint" />
          </mxGeometry>
        </mxCell>
        <mxCell id="dI6TXHUe1FEHqoitCaC2-38" value="cantidadAlmacen" style="ellipse;whiteSpace=wrap;html=1;align=center;" vertex="1" parent="1">
          <mxGeometry x="-45" y="570" width="120" height="30" as="geometry" />
        </mxCell>
        <mxCell id="dI6TXHUe1FEHqoitCaC2-39" value="" style="endArrow=none;html=1;rounded=0;exitX=1;exitY=0.5;exitDx=0;exitDy=0;" edge="1" target="dI6TXHUe1FEHqoitCaC2-40" parent="1" source="dI6TXHUe1FEHqoitCaC2-27">
          <mxGeometry relative="1" as="geometry">
            <mxPoint x="145" y="455" as="sourcePoint" />
            <mxPoint x="205" y="455" as="targetPoint" />
          </mxGeometry>
        </mxCell>
        <mxCell id="dI6TXHUe1FEHqoitCaC2-40" value="cantidad" style="ellipse;whiteSpace=wrap;html=1;align=center;" vertex="1" parent="1">
          <mxGeometry x="160" y="435" width="50" height="30" as="geometry" />
        </mxCell>
        <mxCell id="dI6TXHUe1FEHqoitCaC2-41" value="" style="endArrow=none;html=1;rounded=0;exitX=0;exitY=0.5;exitDx=0;exitDy=0;" edge="1" target="dI6TXHUe1FEHqoitCaC2-42" parent="1" source="dI6TXHUe1FEHqoitCaC2-27">
          <mxGeometry relative="1" as="geometry">
            <mxPoint x="-50" y="450" as="sourcePoint" />
            <mxPoint x="10" y="450" as="targetPoint" />
          </mxGeometry>
        </mxCell>
        <mxCell id="dI6TXHUe1FEHqoitCaC2-42" value="unidad" style="ellipse;whiteSpace=wrap;html=1;align=center;" vertex="1" parent="1">
          <mxGeometry x="-5" y="435" width="50" height="30" as="geometry" />
        </mxCell>
      </root>
    </mxGraphModel>
  </diagram>
</mxfile>
